<svg width="20" height="20" viewBox="0 0 20 20" fill="none" xmlns="http://www.w3.org/2000/svg">
  <g id="S2_Icon_Copy_20_N">
<path d="M11.75 18H4.25C3.00977 18 2 16.9902 2 15.75V8.25C2 7.00977 3.00977 6 4.25 6C4.66406 6 5 6.33594 5 6.75C5 7.16406 4.66406 7.5 4.25 7.5C3.83691 7.5 3.5 7.83691 3.5 8.25V15.75C3.5 16.1631 3.83691 16.5 4.25 16.5H11.75C12.1631 16.5 12.5 16.1631 12.5 15.75C12.5 15.3359 12.8359 15 13.25 15C13.6641 15 14 15.3359 14 15.75C14 16.9902 12.9902 18 11.75 18Z" fill="currentColor"/>
<path d="M6.75 5C6.33594 5 6 4.66406 6 4.25C6 3.00977 7.00977 2 8.25 2C8.66406 2 9 2.33594 9 2.75C9 3.16406 8.66406 3.5 8.25 3.5C7.83691 3.5 7.5 3.83691 7.5 4.25C7.5 4.66406 7.16406 5 6.75 5Z" fill="currentColor"/>
<path d="M13 3.5H11C10.5859 3.5 10.25 3.16406 10.25 2.75C10.25 2.33594 10.5859 2 11 2H13C13.4141 2 13.75 2.33594 13.75 2.75C13.75 3.16406 13.4141 3.5 13 3.5Z" fill="currentColor"/>
<path d="M13 14H11C10.5859 14 10.25 13.6641 10.25 13.25C10.25 12.8359 10.5859 12.5 11 12.5H13C13.4141 12.5 13.75 12.8359 13.75 13.25C13.75 13.6641 13.4141 14 13 14Z" fill="currentColor"/>
<path d="M15.75 14C15.3359 14 15 13.6641 15 13.25C15 12.8359 15.3359 12.5 15.75 12.5C16.1631 12.5 16.5 12.1631 16.5 11.75C16.5 11.3359 16.8359 11 17.25 11C17.6641 11 18 11.3359 18 11.75C18 12.9902 16.9902 14 15.75 14Z" fill="currentColor"/>
<path d="M17.25 5C16.8359 5 16.5 4.66406 16.5 4.25C16.5 3.83691 16.1631 3.5 15.75 3.5C15.3359 3.5 15 3.16406 15 2.75C15 2.33594 15.3359 2 15.75 2C16.9902 2 18 3.00977 18 4.25C18 4.66406 17.6641 5 17.25 5Z" fill="currentColor"/>
<path d="M17.25 9.75C16.8359 9.75 16.5 9.41406 16.5 9V7C16.5 6.58594 16.8359 6.25 17.25 6.25C17.6641 6.25 18 6.58594 18 7V9C18 9.41406 17.6641 9.75 17.25 9.75Z" fill="currentColor"/>
<path d="M6.75 9.75C6.33594 9.75 6 9.41406 6 9V7C6 6.58594 6.33594 6.25 6.75 6.25C7.16406 6.25 7.5 6.58594 7.5 7V9C7.5 9.41406 7.16406 9.75 6.75 9.75Z" fill="currentColor"/>
<path d="M8.25 14C7.00977 14 6 12.9902 6 11.75C6 11.3359 6.33594 11 6.75 11C7.16406 11 7.5 11.3359 7.5 11.75C7.5 12.1631 7.83691 12.5 8.25 12.5C8.66406 12.5 9 12.8359 9 13.25C9 13.6641 8.66406 14 8.25 14Z" fill="currentColor"/>
  </g>
</svg>
