<svg width="20" height="20" viewBox="0 0 20 20" fill="none" xmlns="http://www.w3.org/2000/svg">
  <g id="S2_Icon_Properties_20_N">
  <path d="M1.75 6.77148H4.4187C4.75934 8.20166 6.03998 9.27148 7.57275 9.27148C9.10552 9.27148 10.3862 8.20166 10.7268 6.77148H18.25C18.6641 6.77148 19 6.43554 19 6.02148C19 5.60742 18.6641 5.27148 18.25 5.27148H10.7268C10.3862 3.8413 9.10552 2.77148 7.57275 2.77148C6.03998 2.77148 4.75933 3.8413 4.4187 5.27148H1.75C1.33594 5.27148 1 5.60742 1 6.02148C1 6.43554 1.33594 6.77148 1.75 6.77148ZM7.57275 4.27148C8.53759 4.27148 9.32275 5.05664 9.32275 6.02148C9.32275 6.98632 8.53759 7.77148 7.57275 7.77148C6.60791 7.77148 5.82275 6.98632 5.82275 6.02148C5.82275 5.05664 6.60791 4.27148 7.57275 4.27148Z" fill="currentColor"/>
  <path d="M18.25 13.2715H15.7268C15.3862 11.8413 14.1055 10.7715 12.5728 10.7715C11.04 10.7715 9.75934 11.8413 9.41871 13.2715H1.75C1.33594 13.2715 1 13.6074 1 14.0215C1 14.4355 1.33594 14.7715 1.75 14.7715H9.4187C9.75934 16.2017 11.04 17.2715 12.5728 17.2715C14.1055 17.2715 15.3862 16.2017 15.7268 14.7715H18.25C18.6641 14.7715 19 14.4355 19 14.0215C19 13.6074 18.6641 13.2715 18.25 13.2715ZM12.5728 15.7715C11.6079 15.7715 10.8228 14.9863 10.8228 14.0215C10.8228 13.0566 11.6079 12.2715 12.5728 12.2715C13.5376 12.2715 14.3228 13.0566 14.3228 14.0215C14.3228 14.9863 13.5376 15.7715 12.5728 15.7715Z" fill="currentColor"/>
</g>
</svg>
