<svg width="20" height="20" viewBox="0 0 20 20" fill="none" xmlns="http://www.w3.org/2000/svg">
  <g id="S2_Icon_Binoculars_20_N">
  <path d="M18.6191 12.9041L16.7051 4.3164C16.4453 3.04101 15.3125 2.11523 14.0098 2.11523C12.4932 2.11523 11.2598 3.34863 11.2598 4.86523V5.37597C10.883 5.18176 10.4621 5.06152 10.0098 5.06152C9.55737 5.06152 9.13647 5.18176 8.75976 5.37597V4.86523C8.75976 3.34863 7.52636 2.11523 6.00976 2.11523C4.70703 2.11523 3.57324 3.04101 3.31738 4.30175L1.40039 12.9043C1.31787 13.2129 1.25977 13.531 1.25977 13.8652C1.25977 15.9326 2.94239 17.6152 5.00977 17.6152C7.07642 17.6152 8.75855 15.9336 8.75953 13.8672L8.75977 11.8652C8.75977 11.1758 9.32032 10.6152 10.0098 10.6152C10.6992 10.6152 11.2598 11.1758 11.2598 11.8652V13.8672C11.2593 14.8684 11.6499 15.8091 12.3574 16.5166C13.0654 17.2256 14.0068 17.6152 15.0088 17.6152C17.0762 17.6152 18.7588 15.9336 18.7598 13.8652C18.7598 13.531 18.7016 13.2126 18.6191 12.9041ZM14.0098 3.61523C14.6016 3.61523 15.1172 4.03613 15.2383 4.62988L16.5448 10.4522C16.0749 10.24 15.5579 10.1152 15.0098 10.1152C14.1624 10.1152 13.3884 10.4085 12.7598 10.8843V4.86524C12.7598 4.17579 13.3203 3.61523 14.0098 3.61523ZM4.78417 4.61523C4.90136 4.03613 5.41698 3.61523 6.00976 3.61523C6.69921 3.61523 7.25976 4.17578 7.25976 4.86523V10.8845C6.6311 10.4087 5.85717 10.1152 5.00976 10.1152C4.46142 10.1152 3.94384 10.2402 3.47387 10.4526L4.78417 4.61523ZM5.00976 16.1152C3.76953 16.1152 2.75976 15.1055 2.75976 13.8652C2.75976 12.625 3.76953 11.6152 5.00976 11.6152C6.24999 11.6152 7.25976 12.625 7.25976 13.8652C7.25976 15.1055 6.24999 16.1152 5.00976 16.1152ZM10.0098 9.11523C9.55737 9.11523 9.13647 9.23535 8.75976 9.42968V7.81152C8.75976 7.12207 9.32031 6.56152 10.0098 6.56152C10.6992 6.56152 11.2598 7.12207 11.2598 7.81152V9.42968C10.883 9.23534 10.4621 9.11523 10.0098 9.11523ZM15.0088 16.1152C14.4082 16.1152 13.8428 15.8809 13.418 15.4561C12.9932 15.0313 12.7598 14.4668 12.7598 13.8652C12.7598 12.625 13.7695 11.6152 15.0098 11.6152C16.25 11.6152 17.2598 12.625 17.2598 13.8652C17.2588 15.1055 16.249 16.1152 15.0088 16.1152Z" fill="currentColor"/>
</g>
</svg>
