<svg width="20" height="20" viewBox="0 0 20 20" fill="none" xmlns="http://www.w3.org/2000/svg">
  <g id="S2_Icon_FileConvert_20_N">
    <path d="M12.2803 12.5302L10.5303 14.2802C10.3838 14.4267 10.1919 14.5 9.99999 14.5C9.8081 14.5 9.6162 14.4267 9.46972 14.2802L7.71972 12.5302C7.42675 12.2373 7.42675 11.7627 7.71972 11.4697C8.01269 11.1767 8.4873 11.1767 8.78027 11.4697L9.20141 11.8908C9.16729 10.8759 8.70025 9.89718 7.87304 9.24752C6.35449 8.05465 4.15087 8.32125 2.95898 9.83834C2.64404 10.2397 2.42431 10.6928 2.30712 11.1845C2.21142 11.5874 1.80468 11.8364 1.40331 11.7397C1.00048 11.6435 0.751943 11.2387 0.848133 10.8359C1.0161 10.1328 1.32909 9.48531 1.77928 8.91207C3.48094 6.74312 6.63084 6.36519 8.79979 8.06783C10.019 9.02559 10.6981 10.4834 10.7066 11.9829L11.2197 11.4697C11.5127 11.1767 11.9873 11.1767 12.2803 11.4697C12.5732 11.7627 12.5732 12.2373 12.2803 12.5302ZM17 6.87106V15.75C17 16.9907 15.9907 18 14.75 18H5.24999C4.00927 18 2.99999 16.9907 2.99999 15.75V13.75C2.99999 13.3359 3.33593 13 3.74999 13C4.16405 13 4.49999 13.3359 4.49999 13.75V15.75C4.49999 16.1635 4.83642 16.5 5.24999 16.5H14.75C15.1636 16.5 15.5 16.1635 15.5 15.75V7.99997H12.25C11.0093 7.99997 9.99999 6.99069 9.99999 5.74997V2.49997H5.24999C4.83642 2.49997 4.49999 2.8364 4.49999 3.24997V4.74997C4.49999 5.16403 4.16405 5.49997 3.74999 5.49997C3.33593 5.49997 2.99999 5.16403 2.99999 4.74997V3.24997C2.99999 2.00925 4.00927 0.999969 5.24999 0.999969H11.1289C11.729 0.999969 12.2935 1.23386 12.7187 1.65817L16.3413 5.28073C16.7661 5.70651 17 6.27096 17 6.87106ZM12.25 6.49997H15.3862C15.3541 6.44467 15.3259 6.38657 15.2803 6.34079L11.6587 2.71921C11.6132 2.6738 11.5552 2.64572 11.5 2.61374V5.74997C11.5 6.16354 11.8364 6.49997 12.25 6.49997Z" fill="currentColor"/>
  </g>
</svg>
