<svg width="20" height="20" viewBox="0 0 20 20" fill="none" xmlns="http://www.w3.org/2000/svg">
  <g id="S2_Icon_Refresh_20_N">
    <path d="M18.2065 3.89745C17.8013 3.80272 17.3984 4.04784 17.3013 4.45116L16.9208 6.02587C15.5231 3.59399 12.919 2.02148 10 2.02148C6.31544 2.02148 3.12452 4.52148 2.24073 8.10156C2.14112 8.5039 2.38673 8.91015 2.78907 9.00976C3.19044 9.10937 3.59766 8.86328 3.69678 8.46093C4.41504 5.55273 7.00684 3.52148 10 3.52148C12.5168 3.52148 14.735 4.96777 15.809 7.1538L13.7065 6.6455C13.3032 6.55175 12.8989 6.79589 12.8013 7.19921C12.7041 7.60155 12.9517 8.00683 13.354 8.10448L16.5992 8.88866C16.724 8.97728 16.8729 9.03124 17.0308 9.03124C17.0903 9.03124 17.1509 9.0244 17.2109 9.00976C17.2592 8.9978 17.2968 8.96874 17.3401 8.94872C17.4097 8.93017 17.4835 8.92919 17.5459 8.89061C17.7153 8.78709 17.8369 8.6201 17.8838 8.42674L18.7593 4.80272C18.8564 4.40038 18.6089 3.9951 18.2065 3.89745Z" fill="currentColor"/>
    <path d="M17.2109 11.0322C16.8139 10.9355 16.4028 11.1787 16.3032 11.5811C15.5849 14.4902 12.9931 16.5215 9.99998 16.5215C7.48295 16.5215 5.26475 15.075 4.19084 12.8879L6.29344 13.3965C6.69627 13.4883 7.10155 13.2461 7.19871 12.8428C7.29588 12.4404 7.04832 12.0352 6.64598 11.9375L3.39104 11.1509C3.22002 11.0327 3.00573 10.9795 2.78905 11.0322C2.77385 11.0361 2.76305 11.0469 2.74834 11.0515C2.64513 11.0647 2.54442 11.0957 2.45409 11.1514C2.28466 11.2549 2.16307 11.4219 2.1162 11.6152L1.24071 15.2393C1.14354 15.6416 1.3911 16.0469 1.79344 16.1445C1.85301 16.1582 1.91209 16.165 1.9702 16.165C2.30858 16.165 2.61571 15.9346 2.69872 15.5908L3.07915 14.0161C4.47679 16.4482 7.08104 18.0215 9.99999 18.0215C13.6846 18.0215 16.8755 15.5205 17.7593 11.9404C17.8589 11.5381 17.6133 11.1318 17.2109 11.0322Z" fill="currentColor"/>
  </g>
</svg>
