<svg width="20" height="20" viewBox="0 0 20 20" fill="none" xmlns="http://www.w3.org/2000/svg">
  <g id="S2_Icon_CheckmarkCircleGreen_20_N">
    <path d="M10 18.75C5.17529 18.75 1.25 14.8252 1.25 10C1.25 5.1748 5.17529 1.25 10 1.25C14.8247 1.25 18.75 5.1748 18.75 10C18.75 14.8252 14.8247 18.75 10 18.75ZM10 2.75C6.00244 2.75 2.75 6.00195 2.75 10C2.75 13.998 6.00244 17.25 10 17.25C13.9976 17.25 17.25 13.998 17.25 10C17.25 6.00195 13.9976 2.75 10 2.75Z" fill="#079355"/>
    <path d="M9.18263 13.9434C8.97072 13.9434 8.76759 13.8535 8.62501 13.6953L5.98146 10.7559C5.7046 10.4473 5.72951 9.97363 6.03761 9.69629C6.34571 9.41895 6.82032 9.44531 7.09669 9.75195L9.12355 12.0059L12.8228 6.95996C13.0674 6.62598 13.5381 6.55273 13.8711 6.79883C14.2051 7.04297 14.2774 7.5127 14.0327 7.84668L9.78761 13.6367C9.65382 13.8193 9.44532 13.9316 9.22023 13.9424C9.20753 13.9434 9.19484 13.9434 9.18263 13.9434Z" fill="#079355"/>
  </g>
</svg>
