<svg width="20" height="20" viewBox="0 0 20 20" fill="none" xmlns="http://www.w3.org/2000/svg">
  <g id="S2_Icon_Emoji_20_N">
    <path d="M10 14.5C8.07327 14.5 6.71732 13.3706 6.66067 13.3223C6.34426 13.0547 6.3052 12.5816 6.57278 12.2652C6.83987 11.9497 7.31301 11.9087 7.62942 12.1778C7.63674 12.1836 8.63772 13 10 13C11.3711 13 12.4175 12.1753 12.4278 12.1665C12.75 11.9087 13.2222 11.9585 13.4815 12.2798C13.7407 12.6006 13.6934 13.0703 13.3736 13.3311C13.315 13.3789 11.919 14.5 10 14.5Z" fill="currentColor"/>
    <path d="M7.25 9.25C7.94036 9.25 8.5 8.69036 8.5 8C8.5 7.30964 7.94036 6.75 7.25 6.75C6.55964 6.75 6 7.30964 6 8C6 8.69036 6.55964 9.25 7.25 9.25Z" fill="currentColor"/>
    <path d="M12.75 9.25C13.4404 9.25 14 8.69036 14 8C14 7.30964 13.4404 6.75 12.75 6.75C12.0596 6.75 11.5 7.30964 11.5 8C11.5 8.69036 12.0596 9.25 12.75 9.25Z" fill="currentColor"/>
    <path d="M10 18.75C5.17529 18.75 1.25 14.8247 1.25 10C1.25 5.17529 5.17529 1.25 10 1.25C14.8247 1.25 18.75 5.17529 18.75 10C18.75 14.8247 14.8247 18.75 10 18.75ZM10 2.75C6.00244 2.75 2.75 6.00244 2.75 10C2.75 13.9976 6.00244 17.25 10 17.25C13.9976 17.25 17.25 13.9976 17.25 10C17.25 6.00244 13.9976 2.75 10 2.75Z" fill="currentColor"/>
    <path d="M9.97756 14.5C8.05129 14.5 6.69533 13.3701 6.63869 13.3223C6.32228 13.0547 6.28322 12.5811 6.5508 12.2656C6.81789 11.9483 7.29103 11.9102 7.60744 12.1777C7.61476 12.1836 8.61574 13 9.97756 13C11.3487 13 12.395 12.1748 12.4053 12.167C12.7276 11.9082 13.1992 11.959 13.459 12.2793C13.7183 12.6006 13.6709 13.0703 13.3511 13.3311C13.2925 13.3789 11.8965 14.5 9.97756 14.5Z" fill="currentColor"/>
    <path d="M7.25 9.27304C7.94036 9.27304 8.5 8.7134 8.5 8.02304C8.5 7.33269 7.94036 6.77304 7.25 6.77304C6.55964 6.77304 6 7.33269 6 8.02304C6 8.7134 6.55964 9.27304 7.25 9.27304Z" fill="currentColor"/>
    <path d="M12.75 9.27304C13.4404 9.27304 14 8.7134 14 8.02304C14 7.33269 13.4404 6.77304 12.75 6.77304C12.0596 6.77304 11.5 7.33269 11.5 8.02304C11.5 8.7134 12.0596 9.27304 12.75 9.27304Z" fill="currentColor"/>
    <path d="M10 18.75C5.17529 18.75 1.25 14.8252 1.25 10C1.25 5.1748 5.17529 1.25 10 1.25C14.8247 1.25 18.75 5.1748 18.75 10C18.75 14.8252 14.8247 18.75 10 18.75ZM10 2.75C6.00244 2.75 2.75 6.00195 2.75 10C2.75 13.998 6.00244 17.25 10 17.25C13.9976 17.25 17.25 13.998 17.25 10C17.25 6.00195 13.9976 2.75 10 2.75Z" fill="currentColor"/>
  </g>
</svg>
