<svg width="20" height="20" viewBox="0 0 20 20" xmlns="http://www.w3.org/2000/svg">
  <g id="S2_Icon_Archive_20_N">
    <path d="M16.75 3H3.25C2.00928 3 1 4.00977 1 5.25V6.25C1 7.02808 1.39764 7.71484 2 8.11914V14.75C2 15.9902 3.00928 17 4.25 17H15.75C16.9907 17 18 15.9902 18 14.75V8.11914C18.6024 7.71484 19 7.02808 19 6.25V5.25C19 4.00977 17.9907 3 16.75 3ZM2.5 5.25C2.5 4.83691 2.83643 4.5 3.25 4.5H16.75C17.1636 4.5 17.5 4.83691 17.5 5.25V6.25C17.5 6.66309 17.1636 7 16.75 7H3.25C2.83643 7 2.5 6.66309 2.5 6.25V5.25ZM15.75 15.5H4.25C3.83643 15.5 3.5 15.1631 3.5 14.75V8.5H16.5V14.75C16.5 15.1631 16.1636 15.5 15.75 15.5Z" fill="currentColor"/>
    <path d="M12.25 12H7.75C7.33594 12 7 11.6641 7 11.25C7 10.8359 7.33594 10.5 7.75 10.5H12.25C12.6641 10.5 13 10.8359 13 11.25C13 11.6641 12.6641 12 12.25 12Z" fill="currentColor"/>
  </g>
</svg>
