<svg width="20" height="20" viewBox="0 0 20 20" fill="none" xmlns="http://www.w3.org/2000/svg">
  <g id="S2_Icon_GlobeGrid_20_N">
  <path d="M10 1.25195C5.1748 1.25195 1.25 5.17676 1.25 10.002C1.25 14.8271 5.1748 18.752 10 18.752C14.8252 18.752 18.75 14.8272 18.75 10.002C18.75 5.17675 14.8252 1.25195 10 1.25195ZM17.2109 9.25195H14.0688C13.9294 6.92163 13.1543 4.72558 11.8772 3.00708C14.7327 3.77441 16.8999 6.23828 17.2109 9.25195ZM10.0125 16.8833C8.52295 15.3462 7.5935 13.1384 7.43042 10.752H12.5696C12.4082 13.1401 11.4885 15.3452 10.0125 16.8833ZM7.43066 9.25195C7.5935 6.8645 8.52246 4.65796 10.012 3.12011C11.4888 4.65771 12.4082 6.86303 12.5696 9.25195H7.43066ZM8.14624 3.00098C6.85645 4.72119 6.07227 6.92017 5.93115 9.25196H2.78906C3.10083 6.22999 5.27929 3.76124 8.14624 3.00098ZM2.78906 10.752H5.93115C6.07226 13.0828 6.85742 15.2822 8.14721 17.0029C5.27953 16.2432 3.10107 13.7742 2.78906 10.752ZM11.8767 16.9968C13.154 15.2776 13.9294 13.0816 14.0691 10.752H17.2109C16.8999 13.7659 14.7324 16.2297 11.8767 16.9968Z" fill="currentColor"/>
</g></svg>
