<svg width="20" height="20" viewBox="0 0 20 20" fill="none" xmlns="http://www.w3.org/2000/svg">
  <g id="S2_Icon_ProjectAddInto_20_N">
    <path d="M15.75 11H4.99472L10.7134 4.36572C11.4951 3.45849 11.4424 2.12646 10.5947 1.39599L10.2724 1.11865C9.85104 0.754878 9.30173 0.595698 8.73141 0.667968C8.18893 0.736818 7.68698 1.01074 7.31832 1.43897L1.43942 8.25977C0.657194 9.167 0.710424 10.4985 1.5571 11.2285L1.87985 11.5068C2.06308 11.6649 2.27072 11.7827 2.49313 11.8615C2.18917 12.2452 1.99997 12.7236 1.99997 13.25V16.25C1.99997 17.7666 3.23337 19 4.74997 19H15.25C16.7666 19 18 17.7666 18 16.25V13.25C18 12.0093 16.9907 11 15.75 11ZM2.57517 9.23926L8.45408 2.41846C8.58103 2.27149 8.74705 2.17774 8.92137 2.15576C8.94139 2.15332 8.96629 2.15088 8.99412 2.15088C9.08055 2.15088 9.19578 2.1709 9.29344 2.25488L9.61571 2.53222C9.83251 2.71923 9.81542 3.11034 9.57762 3.38622L3.69823 10.207C3.57128 10.354 3.40526 10.4477 3.23094 10.4697C3.15037 10.4814 2.98826 10.4819 2.85936 10.3711L2.53661 10.0928C2.31981 9.90576 2.33787 9.51514 2.57517 9.23926ZM16.5 16.25C16.5 16.9394 15.9394 17.5 15.25 17.5H4.74997C4.06052 17.5 3.49997 16.9394 3.49997 16.25V13.25C3.49997 12.8364 3.8364 12.5 4.24997 12.5H15.75C16.1635 12.5 16.5 12.8364 16.5 13.25V16.25Z" fill="currentColor"/>
    <path d="M11.5 15.5H8.5C8.08594 15.5 7.75 15.1641 7.75 14.75C7.75 14.3359 8.08594 14 8.5 14H11.5C11.9141 14 12.25 14.3359 12.25 14.75C12.25 15.1641 11.9141 15.5 11.5 15.5Z" fill="currentColor"/>
    <path d="M18.2803 2.71973C17.9873 2.42676 17.5127 2.42676 17.2197 2.71973L13.5 6.43946V5.25001C13.5 4.83595 13.1641 4.50001 12.75 4.50001C12.3359 4.50001 12 4.83595 12 5.25001V8.25001C12 8.66407 12.3359 9.00001 12.75 9.00001H15.75C16.1641 9.00001 16.5 8.66407 16.5 8.25001C16.5 7.83595 16.1641 7.50001 15.75 7.50001H14.5605L18.2803 3.78028C18.5732 3.48731 18.5732 3.0127 18.2803 2.71973Z" fill="currentColor"/>
  </g>
</svg>
