<svg width="20" height="20" viewBox="0 0 20 20" fill="none" xmlns="http://www.w3.org/2000/svg">
  <g id="S2_Icon_AlertDiamondOrange_20_N">
<path d="M9.99999 18.7949C9.39892 18.7949 8.83349 18.5605 8.40868 18.1357L1.86425 11.5908C0.987794 10.7139 0.987794 9.28613 1.86376 8.40918L8.40917 1.86426C9.2578 1.01465 10.7417 1.01465 11.5913 1.86426L18.1357 8.40918C19.0122 9.28613 19.0122 10.7139 18.1362 11.5908L11.5908 18.1357C11.1665 18.5605 10.6011 18.7949 9.99999 18.7949ZM9.99999 2.70508C9.79979 2.70508 9.61132 2.7832 9.4702 2.92481L2.92479 9.46973C2.6328 9.76172 2.6328 10.2383 2.92528 10.5303L9.46971 17.0752C9.75291 17.3584 10.2475 17.3584 10.5298 17.0752L17.0747 10.5303C17.3672 10.2383 17.3672 9.76173 17.0747 9.46973L10.5303 2.92481C10.3887 2.78321 10.2002 2.70508 9.99999 2.70508Z" fill="#D45B00"/>
<path d="M9.99936 14.9983C9.76871 15.0065 9.54398 14.9246 9.37275 14.77C9.04242 14.4054 9.04242 13.8501 9.37275 13.4854C9.5421 13.3271 9.76758 13.2427 9.99939 13.2507C10.2357 13.2412 10.4653 13.3309 10.6324 13.4981C10.7945 13.6658 10.8816 13.892 10.8738 14.1249C10.8862 14.3596 10.8042 14.5895 10.6461 14.7636C10.4725 14.9281 10.2382 15.0132 9.99936 14.9983Z" fill="#D45B00"/>
<path d="M10 11.625C9.58594 11.625 9.25 11.2891 9.25 10.875V5.875C9.25 5.46094 9.58594 5.125 10 5.125C10.4141 5.125 10.75 5.46094 10.75 5.875V10.875C10.75 11.2891 10.4141 11.625 10 11.625Z" fill="#D45B00"/>
</g>
</svg>
